<svg xmlns="http://www.w3.org/2000/svg" enable-background="new 0 0 1080 1080" viewBox="0 0 1080 1080" id="almonds"><path fill="#f7c997" d="M440,677.5c0,55,18.8,106.2,48.8,146.3c-28.8,11.3-60,17.5-92.5,17.5c-135,0-243.8-108.8-243.8-243.8
				s108.7-438.7,243.8-438.7c65,0,123.8,70,167.5,158.8C490,416.3,440,586.3,440,677.5z"></path><path fill="#eab88b" d="M927.5,677.5c0,135-108.7,243.8-243.8,243.8c-80,0-150-38.7-195-97.5c-31.2-41.2-48.8-91.2-48.8-146.3
				c0-91.2,50-261.3,125-360c35-47.5,76.2-78.7,120-78.7C818.8,238.8,927.5,542.5,927.5,677.5z"></path><path fill="#bc6f3b" d="M683.8,838.8c-88.7,0-161.3-72.5-161.3-161.3c0-50,21.2-147.5,63.7-235c43.8-92.5,85-121.3,97.5-121.3
				s53.8,30,97.5,121.3c41.3,87.5,63.7,183.8,63.7,235C845,766.3,772.5,838.8,683.8,838.8z"></path><path d="M396.2,853.8c30.2,0,59.8-5.3,88.3-15.4c49.7,60.7,121.8,95.4,199.2,95.4c141.3,0,256.2-115,256.2-256.2
			c0-134.6-107.7-451.2-255-451.2c-40.5,0-81.2,24.1-118.5,69.3c-51-96.4-111-149.3-170.3-149.3c-148,0-256.2,316.7-256.2,451.3
			C140,738.8,255,853.8,396.2,853.8z M685,251.3c121.2,0,230,289.5,230,426.2c0,127.5-103.7,231.2-231.2,231.2
			c-72.5,0-140-33.7-185-92.5c-29.8-39.8-46.2-89-46.2-138.7c0-5.6,0.2-11.6,0.6-17.8c0.1-1.5,0.3-3.2,0.4-4.7
			c7-93.5,54.9-242.3,121.6-330.1C599.8,291.3,639,251.3,685,251.3z M396.2,171.2c51.3,0,105.5,51.4,152.9,145
			c-21.2,29.6-40.4,65.3-57.1,103.1c-0.2,0.5-0.5,1.1-0.7,1.6c-1.9,4.4-3.8,8.8-5.6,13.2c-36.3,86-58.2,180.4-58.2,243.3
			c0,6.4,0.3,12.8,0.8,19.2c0.4,5,1,10,1.7,15c0.1,1,0.2,2.1,0.4,3.1c5.3,36.6,18.3,71.2,38.6,102.2c0.1,0.1,0.2,0.3,0.3,0.5
			c-23.6,7.5-48.1,11.3-72.9,11.3C268.7,828.8,165,725,165,597.5C165,460.8,274.4,171.2,396.2,171.2z"></path><path d="M394.8 792.5c.1 0 .1 0 .2 0 6.8 0 12.4-5.5 12.5-12.3.1-6.9-5.4-12.6-12.3-12.7-91.8-1.2-166.4-76.9-166.4-168.8 0-6.9-5.6-12.5-12.5-12.5s-12.5 5.6-12.5 12.5C203.7 704.3 289.5 791.2 394.8 792.5zM510 677.5c0 95.8 77.9 173.8 173.8 173.8s173.8-77.9 173.8-173.8c0-49.4-20.3-145.7-65-240.4-40.4-84.3-85.3-128.3-108.8-128.3-23.1 0-67.1 40.2-108.7 128.3C532.3 524.9 510 624.5 510 677.5zM626.3 677.5c0-47.8 9.4-143.1 27.2-232.5 11.7-57.9 23.3-89.3 30.5-103.7 6.8 14 18 45 30.1 103.8 18.7 87.2 27.2 181.6 27.2 232.4 0 87.7-30.3 148.8-57.5 148.8S626.3 765.2 626.3 677.5zM769.9 447.8c41.1 87.1 62.6 181.5 62.6 229.7 0 64.5-41.3 119.3-98.8 139.9 20-31.1 32.5-81.2 32.5-139.9 0-52-8.7-148.6-27.7-237.5-6.1-29.7-12.3-54.2-18.5-73.9C734.7 384.1 752.1 410.6 769.9 447.8zM648.1 364.5c-8.1 24.9-14.6 53.6-19.1 75.6-18.2 91.1-27.7 188.4-27.7 237.5 0 58.8 12.6 108.8 32.5 139.9C576.3 796.8 535 742 535 677.5c0-50.1 21.5-145.1 62.6-229.7C616.1 408.6 633.7 382 648.1 364.5zM400 450c6.9 0 12.5-5.6 12.5-12.5S406.9 425 400 425c-21.7 0-40-18.3-40-40 0-6.9-5.6-12.5-12.5-12.5S335 378.1 335 385C335 420.8 364.2 450 400 450zM305 512.5c6.9 0 12.5-5.6 12.5-12.5s-5.6-12.5-12.5-12.5c-21.7 0-40-18.3-40-40 0-6.9-5.6-12.5-12.5-12.5s-12.5 5.6-12.5 12.5C240 483.3 269.2 512.5 305 512.5zM301.3 567.5c-6.9 0-12.5 5.6-12.5 12.5 0 35.8 29.2 65 65 65 6.9 0 12.5-5.6 12.5-12.5s-5.6-12.5-12.5-12.5c-21.7 0-40-18.3-40-40C313.8 573.1 308.2 567.5 301.3 567.5zM411.3 311.3c6.9 0 12.5-5.6 12.5-12.5s-5.6-12.5-12.5-12.5c-21.7 0-40-18.3-40-40 0-6.9-5.6-12.5-12.5-12.5s-12.5 5.6-12.5 12.5C346.2 282.1 375.4 311.3 411.3 311.3z"></path></svg>