<svg xmlns="http://www.w3.org/2000/svg" data-name="Layer 1" viewBox="0 0 512 512" id="apple"><path fill="#37b678" d="M107.966,104.64106a100.84387,100.84387,0,0,0,82.38186,21.62932,104.64874,104.64874,0,0,0-37.88078-82.58663A100.84378,100.84378,0,0,0,70.0852,22.05443,104.64875,104.64875,0,0,0,107.966,104.64106Z"></path><path fill="#00a653" d="M190.34326,133.77051a7.46732,7.46732,0,0,1-4.728-1.68164L119.63965,78.42529a7.49994,7.49994,0,0,1,9.46484-11.63672l65.97559,53.66358a7.5,7.5,0,0,1-4.73682,13.31836Z"></path><path fill="#e5303e" d="M400.73,327.05005c-.11,2.90991-.31,7.02991-.77,12.11987-.25,2.78-.57,5.84009-1,9.15015A243.20034,243.20034,0,0,1,392.53,380.76c-6.66,24.58-18.75,53.52-40.81,79.85a184.60783,184.60783,0,0,1-20.04,20.5A95.93044,95.93044,0,0,1,323.54,487.5c-1.34.93994-2.69,1.85-4.06,2.7C296.12,505,268.14,508.61,242.16,499.64a129.05222,129.05222,0,0,0-80.79-1.31994C132,507.38,100.52,500.74,76.17,480.12a174.99349,174.99349,0,0,1-19.65-19.51C11.48,408.34,7.96,343.96,7.51,327.05005c0-.43-.01-.93-.01-1.5,0-15.55,2.1-81.48,49.02-132.06006a156.84344,156.84344,0,0,1,29.72-25.07007c26.77-17.37988,59.21-18.79992,87.71-5.34985A82.25145,82.25145,0,0,0,242.18,164.51a88.77793,88.77793,0,0,1,86.44,9.11,152.3711,152.3711,0,0,1,23.1,19.87C400.92,245.14,400.9,315.26,400.73,327.05005Z"></path><path fill="#b28966" d="M204.61621,211.502a7.5025,7.5025,0,0,1-7.0791-5.02441A254.59326,254.59326,0,0,1,212.312,4.01807a7.49985,7.49985,0,0,1,13.28516,6.96386,239.59084,239.59084,0,0,0-13.90186,190.54053,7.50485,7.50485,0,0,1-7.0791,9.97949Z"></path><path fill="#b72732" d="M204.09766 219.00928q-.55 0-1.09961-.01074a59.44454 59.44454 0 0 1-24.21534-5.72559 7.50014 7.50014 0 0 1 6.44336-13.5459 43.84043 43.84043 0 0 0 37.79883-.001 7.50019 7.50019 0 0 1 6.43946 13.54786A59.38225 59.38225 0 0 1 204.09766 219.00928zM398.96 348.32007A243.20034 243.20034 0 0 1 392.53 380.76c-6.66 24.58-18.75 53.52-40.81 79.85a184.60783 184.60783 0 0 1-20.04 20.5A95.93044 95.93044 0 0 1 323.54 487.5c-1.34.93994-2.69 1.85-4.06 2.7a182.18283 182.18283 0 0 1-19.97-10.12 195.92425 195.92425 0 0 1-36.63-27.64c-7.33-7.32995-48.13-49.41992-49.9-111.22a138.4916 138.4916 0 0 1 3.07-33.53c5.88-27.04993 24.7-47.91992 49.99-57.34a74.55031 74.55031 0 0 0 11.99-5.71 17.72222 17.72222 0 0 1 21.75 2.79993z"></path><path fill="#ffdaa7" d="M329.78052,247.44183a17.72416,17.72416,0,0,0-21.75493-2.80111,74.51042,74.51042,0,0,1-11.98145,5.71169c-25.2901,9.421-44.117,30.29078-49.99278,57.33725a138.81925,138.81925,0,0,0-3.07321,33.53421c1.7704,61.79822,42.57413,103.88439,49.9,111.21372l.0003.00032c10.35726,9.97005,50.87,46.83666,109.33656,50.75658a147.42805,147.42805,0,0,0,23.54332-.29129c27.05841-2.51749,50.10391-17.90454,62.50844-41.51024a116.45449,116.45449,0,0,1,12.549-19.10327,16.47476,16.47476,0,0,0-.97228-21.86533Z"></path><ellipse cx="376.124" cy="359.676" fill="#58565d" rx="17.319" ry="30.693" transform="rotate(-44.057 376.124 359.676)"></ellipse></svg>