<svg xmlns="http://www.w3.org/2000/svg" enable-background="new 0 0 64 64" viewBox="0 0 64 64" id="chickpeas"><path fill="#f4b2b0" d="M46.442,59.665L46.442,59.665c-2.918-1.751-6.216-2.77-9.613-2.969l-6.492-0.382
		c-3.392-0.2-6.533-1.852-8.619-4.534l0,0C19.308,48.682,18,44.869,18,40.944v0c0-3.643,2.058-6.973,5.317-8.603l0,0
		C25.081,31.459,27.027,31,29,31h0l0,0c3.201-3.201,7.543-5,12.071-5l3.049,0c4.858,0,9.328,2.653,11.654,6.918l0,0
		C57.234,35.596,58,38.599,58,41.651v0c0,5.256-2.475,10.205-6.679,13.359l0,0C50.489,55.633,50,56.612,50,57.651v0
		C50,58.948,48.948,60,47.651,60l0,0C47.225,60,46.807,59.884,46.442,59.665z"></path><path fill="#b3404a" d="M3,36.235V38c0,0.552,0.447,1,1,1h3.85c1.334,0,2.66,0.186,3.943,0.552
		c1.707,0.488,3.462,0.85,5.228,1.094C17.018,40.746,17,40.843,17,40.944c0,4.126,1.396,8.192,3.929,11.45
		c2.263,2.909,5.67,4.702,9.35,4.918l6.492,0.382c3.222,0.189,6.389,1.168,9.157,2.829C46.448,60.835,47.044,61,47.65,61
		c1.847,0,3.35-1.502,3.35-3.349c0-0.721,0.344-1.409,0.92-1.841C56.354,52.485,59,47.192,59,41.651c0-3.003-0.72-5.981-2.069-8.66
		c1.149-1.055,2.092-2.33,2.727-3.757C60.548,27.228,61,25.098,61,22.905c0-4.487,0.625-8.952,1.857-13.268l0.104-0.361
		c0.087-0.302,0.026-0.627-0.162-0.877C62.609,8.147,62.314,8,62,8h-1.153c-2.308,0-4.519-0.708-6.396-2.05
		C51.748,4.02,48.564,3,45.244,3c-3.624,0-7.122,1.314-9.85,3.701C32.602,9.144,31,12.674,31,16.384c0,3.692,1.664,7.17,4.423,9.53
		c-0.927,0.304-1.833,0.67-2.698,1.122c-0.647-2.485-2.372-4.605-4.725-5.701v-0.398c0-1.478-0.454-2.893-1.313-4.094
		C24.075,13.184,19.831,11,15.335,11c-4.338,0-8.352,1.963-11.013,5.386C2.18,19.14,1,22.578,1,26.067v1.697
		C1,29.38,1.382,31,2.105,32.447C2.69,33.618,3,34.928,3,36.235z M50.72,54.21C49.643,55.018,49,56.304,49,57.651
		C49,58.395,48.395,59,47.65,59c-0.244,0-0.483-0.066-0.693-0.192c-3.045-1.826-6.526-2.902-10.069-3.11l-6.492-0.382
		c-3.104-0.183-5.979-1.695-7.889-4.149C20.245,48.258,19,44.628,19,40.944c0-3.285,1.825-6.239,4.764-7.708
		c1.588-0.794,3.362-1.215,5.138-1.231c8.24,1.807,15.008,7.886,17.678,15.894l0.473,1.417l1.896-0.633l-0.473-1.417
		C45.775,39.164,39.199,32.888,31.07,30.5c2.834-2.263,6.321-3.5,10.001-3.5h3.049c0.001,0,0.001,0,0.001,0
		c4.494,0,8.622,2.451,10.774,6.396C56.272,35.92,57,38.775,57,41.651C57,46.566,54.652,51.261,50.72,54.21z M33,16.384
		c0-3.134,1.353-6.115,3.711-8.179C39.074,6.139,42.104,5,45.244,5c2.901,0,5.684,0.892,8.045,2.578
		c2.173,1.553,4.727,2.389,7.395,2.421C59.566,14.21,59,18.547,59,22.905c0,1.912-0.394,3.768-1.171,5.517
		c-0.464,1.044-1.121,1.999-1.926,2.809C53.262,27.358,48.87,25,44.121,25H44.12h-3.049c-0.36,0-0.715,0.03-1.071,0.051V22
		c0-4.962,4.037-9,9-9v-2c-6.065,0-11,4.935-11,11v3.273c-0.027,0.005-0.056,0.007-0.083,0.012C34.883,23.362,33,19.992,33,16.384z
		 M3,26.067c0-3.046,1.03-6.048,2.9-8.453C8.181,14.682,11.619,13,15.335,13c3.852,0,7.487,1.871,9.726,5.005
		c0.561,0.785,0.867,1.701,0.918,2.659C24.3,20.229,22.578,20,20.838,20c-2.742,0-5.32,1.068-7.259,3.007l-4.286,4.286l1.414,1.414
		l4.286-4.286C16.554,22.86,18.63,22,20.838,22c1.986,0,3.95,0.319,5.837,0.946l0.084,0.032c2.205,0.855,3.781,2.847,4.157,5.159
		c-0.817,0.558-1.602,1.173-2.33,1.869c-1.979,0.061-3.946,0.556-5.717,1.441c-2.921,1.46-4.925,4.119-5.599,7.215
		c-1.664-0.231-3.318-0.573-4.928-1.032C10.881,37.212,9.369,37,7.85,37H5v-0.765C5,34.619,4.618,33,3.895,31.553
		C3.31,30.382,3,29.072,3,27.764V26.067z"></path></svg>