<svg xmlns="http://www.w3.org/2000/svg" enable-background="new 0 0 64 64" viewBox="0 0 64 64" id="circle"><path d="M45.41,18.1C42.92,7.86,33.7,0.52,23.07,0.52c-12.69,0-23.01,10.33-23.01,23.02C0.06,34.52,8,44.03,18.69,46.1
		c2.44,10.08,11.54,17.6,22.36,17.6c12.69,0,23.01-10.32,23.01-23.01C64.06,29.49,56.02,20.14,45.41,18.1z M18.16,43.07
		C9.35,40.86,2.92,32.78,2.92,23.54c0-11.11,9.04-20.15,20.15-20.15c8.94,0,16.75,5.92,19.28,14.33c-0.43-0.03-0.86-0.04-1.3-0.04
		c-12.69,0-23.01,10.32-23.01,23.01C18.04,41.49,18.08,42.29,18.16,43.07z M41.05,60.83c-11.11,0-20.15-9.03-20.15-20.14
		c0-11.11,9.04-20.15,20.15-20.15s20.14,9.04,20.14,20.15C61.19,51.8,52.16,60.83,41.05,60.83z"></path><path fill="#a6d27d" d="M42.35,17.72c-0.43-0.03-0.86-0.04-1.3-0.04c-12.69,0-23.01,10.32-23.01,23.01c0,0.8,0.04,1.6,0.12,2.38
		C9.35,40.86,2.92,32.78,2.92,23.54c0-11.11,9.04-20.15,20.15-20.15C32.01,3.39,39.82,9.31,42.35,17.72z"></path><path fill="#fdb958" d="M61.19,40.69c0,11.11-9.03,20.14-20.14,20.14S20.9,51.8,20.9,40.69c0-11.11,9.04-20.15,20.15-20.15
		S61.19,29.58,61.19,40.69z"></path></svg>