<svg xmlns="http://www.w3.org/2000/svg" enable-background="new 0 0 1080 1080" viewBox="0 0 1080 1080" id="walnuts"><path fill="#f7c997" d="M682.8,805.2c-113.6,113.6-248.4,142.3-357,98.6c-17.5-7.5-37.5-6.2-56.2,0c-27.5,10-58.7,3.7-79.9-17.5
			c-21.2-21.2-27.5-52.4-17.5-79.9c6.2-18.7,7.5-37.5,0-56.2c-43.7-108.6-15-243.4,98.6-357c30-30,61.2-53.7,93.6-73.7
			c0,3.7,1.2,6.2,2.5,10c-1.2,71.2,67.4,139.8,153.6,226s154.8,154.8,226,153.6c3.7,1.2,6.2,2.5,10,2.5
			C737.7,744,712.8,776.5,682.8,805.2z"></path><path fill="#c17e48" d="M850.1,656.6c-43.7,43.7-84.9,57.4-124.8,49.9c-30-5-59.9-22.5-92.4-47.4c-7.5-6.2-15-12.5-22.5-18.7
			c-25-22.5-52.4-48.7-79.9-76.2l-18.7-18.7c-28.7-28.7-54.9-54.9-76.2-79.9c-6.2-7.5-12.5-15-18.7-22.5
			c-25-31.2-42.4-62.4-47.4-92.4c-7.5-39.9,6.2-81.1,49.9-124.8c47.4-47.4,91.1-58.7,136.1-46.2c22.5,6.2,46.2,18.7,69.9,36.2
			c13.7,10,27.5,21.2,42.4,33.7c20,17.5,41.2,38.7,62.4,59.9c6.2,6.2,12.5,11.2,18.7,17.5c6.2,6.2,12.5,12.5,17.5,17.5
			c22.5,21.2,42.4,42.4,59.9,62.4c12.5,13.7,23.7,27.5,33.7,41.2c17.5,23.7,30,47.4,37.5,69.9C910,564.2,898.8,607.9,850.1,656.6z"></path><path fill="#47d681" d="M927.5,232.2c-2.5,48.7-151.1,122.3-151.1,122.3l-61.2-61.2L826.4,166c10-11.2,26.2-12.5,38.7-3.7
			C888.8,181,928.7,214.7,927.5,232.2z"></path><path d="M306.9,428.1c-93.2,93.2-126,206.5-87.7,303.1c2,4.9,6.6,7.9,11.6,7.9c1.5,0,3.1-0.3,4.6-0.9c6.4-2.5,9.5-9.8,7-16.2
		c-34.6-87-3.9-190.2,82.1-276.2c4.9-4.9,4.9-12.8,0-17.7S311.8,423.2,306.9,428.1z"></path><path d="M872.2,152c-17.9-12.5-41.1-10.2-55.3,5.8l-103,118c-12.9-12.6-25.7-24.9-38.2-35.8c-16.7-13.9-29.7-24.5-43-34.2
		c-25.5-18.8-50.4-31.6-74-38.2c-52-14.5-100.5,1.7-148.2,49.4c-30.7,30.7-48.2,61.2-53.6,92.4c-35.4,21.9-66.5,46.3-95,74.9
		C150.2,496.2,112.3,634.7,160.6,754.9c5.8,14.5,5.7,29.7-0.1,47.3c-11.8,32.3-3.8,68.8,20.4,93s60.7,32.2,92.7,20.5
		c12.4-4.1,30.6-7.5,47.6-0.3c34.4,13.8,70.3,20.6,106.6,20.6c90.6,0,184-42.1,263.8-121.9c29.2-28,55-60.8,74.9-95
		c31.3-5.4,61.8-23,92.5-53.6c49.1-49.1,65.2-97,50.5-151.4c-7.8-23.4-20.4-47-37.1-70.3c-0.6-1.1-1.2-2.1-2.1-3c0,0,0,0,0,0
		c-10.2-14-21.8-28.2-34.4-42.1c-12.5-14.3-25.3-28-38.2-41.1c42.9-22.6,139.8-78.7,142.3-124.7C940.8,220.8,933.7,200.6,872.2,152z
		 M846.4,450.9l-60.3,113.9l-151.7,79.4L627,638l79.8-151.8l117.4-62.7C832.1,432.6,839.6,441.8,846.4,450.9z M882.7,514.2
		l-57.5,30.1l37.2-70.4C871,487.5,877.7,501,882.7,514.2z M561.6,195c12.8,4.5,26,10.9,39.7,19.6l-68.7,36.5L561.6,195z
		 M652.1,252.8l-61,116.3l-152.4,80.7l-6.9-8.3L510.6,291l113.7-60.3C632.9,237.2,641.9,244.4,652.1,252.8z M709.4,306.4l-79.3,42
		l41.3-78.8C683.8,281.1,696.6,293.7,709.4,306.4z M508.6,524.7c-19.3-19.3-37.4-37.9-53.2-55.5l114.8-60.8L508.6,524.7z M607.7,621
		c-17.8-16.3-36.9-34.5-56.3-53.6l116.4-60.8L607.7,621z M688.2,467.7l-155.4,81.2l-5.7-5.7l82.4-155.6l118.7-62.9
		c1,0.9,2,1.9,3,2.8c3,2.7,5.9,5.3,8.9,8.3l11.4,11.4L688.2,467.7z M415,419.8c-15.9-22.4-26.5-43.3-31.4-62.5l88.5-46.7L415,419.8z
		 M718.6,692.4c-18.6-4.7-38.6-14.8-62.3-31.5l109.2-57.1L718.6,692.4z M727.4,446.9l42.6-81.2c12.5,12.3,24.8,25.1,37,38.6
		L727.4,446.9z M428.2,234.8c31.7-31.8,62.3-47.2,94.4-47.2c4.7,0,9.4,0.4,14.2,1l-42.6,82.1l-114,60.2
		C380,298.9,395.7,267.3,428.2,234.8z M674.2,796.2c-0.1,0.1-0.1,0.1-0.2,0.2c-104.5,104.5-233,140.4-343.3,96
		c-9.6-4.1-20.1-6.2-31.2-6.2c-10.9,0-22.3,2-34.2,5.9c-23.3,8.5-49.5,2.7-66.8-14.6c-17.3-17.3-23-43.5-14.5-67.1
		c7.9-23.5,7.8-44.7-0.3-64.8c-44.5-110.6-8.7-239,95.9-343.6c23-22.9,47.7-43.2,75.1-61.5c5.3,72.1,72.7,139.5,156.9,223.8
		c84.4,84.4,151.9,151.9,224.3,156.9C718.6,748.2,697.5,773.8,674.2,796.2z M841.3,647.8c-32.5,32.5-64.1,48.1-96.2,48l59.5-112.5
		l84.3-44.1C893.3,576.7,878.2,610.9,841.3,647.8z M915,231.5c-1.4,27.2-77.8,77.8-136.1,107.7c-1.2-1.2-2.4-2.4-3.6-3.5l-43-43
		l103.4-118.5c5.6-6.3,14.7-7.1,21.6-2.2c56.1,44.3,57.7,58.4,57.7,59.3C915,231.4,915,231.5,915,231.5z"></path></svg>